PathFileType	4	(X/Y/Z)	 2.2Hz3min.trc
DataRate	CameraRate	NumFrames	NumMarkers	Units	OrigDataRate	OrigDataStartFrame	OrigNumFrames
200	200	11	35	m	200	626	1000
Frame#	Time	C7			LSH			RSH			MAN			RASI			LASI			HIPR			HIPL			RPSI			LPSI			COX			RTHI1			RTHI2			RTHI3			RTHI4			RSHA1			RSHA2			RSHA3			RSHA4			RHEEL			RMET5			RMET1			RTOE			LTHI1			LTHI2			LTHI3			LTHI4			LSHA1			LSHA2			LSHA3			LSHA4			LHEEL			LMET5			LMET1			LTOE			
		X1	Y1	Z1	X2	Y2	Z2	X3	Y3	Z3	X4	Y4	Z4	X5	Y5	Z5	X6	Y6	Z6	X7	Y7	Z7	X8	Y8	Z8	X9	Y9	Z9	X10	Y10	Z10	X11	Y11	Z11	X12	Y12	Z12	X13	Y13	Z13	X14	Y14	Z14	X15	Y15	Z15	X16	Y16	Z16	X17	Y17	Z17	X18	Y18	Z18	X19	Y19	Z19	X20	Y20	Z20	X21	Y21	Z21	X22	Y22	Z22	X23	Y23	Z23	X24	Y24	Z24	X25	Y25	Z25	X26	Y26	Z26	X27	Y27	Z27	X28	Y28	Z28	X29	Y29	Z29	X30	Y30	Z30	X31	Y31	Z31	X32	Y32	Z32	X33	Y33	Z33	X34	Y34	Z34	X35	Y35	Z35	
626	3.1300	-0.273175	1.415422	-0.589857	-0.196693	1.411415	-0.762361	-0.208776	1.381639	-0.417715	-0.147300	1.370649	-0.591274	-0.137076	0.966320	-0.492845	-0.133629	0.965852	-0.707746	-0.203088	1.013137	-0.457575	-0.182171	1.026033	-0.738289	-0.299336	1.008919	-0.548324	-0.295340	1.009687	-0.654108	-0.299995	1.017390	-0.603895	-0.237285	0.763311	-0.433069	-0.212529	0.709060	-0.431211	-0.152679	0.731879	-0.423146	-0.170003	0.791020	-0.422662	-0.232292	0.372889	-0.422876	-0.248952	0.333627	-0.429717	-0.190705	0.316771	-0.433708	-0.178362	0.355254	-0.431658	-0.351669	0.121220	-0.483858	-0.222022	0.034692	-0.438125	-0.187494	0.038539	-0.512595	-0.165579	0.028838	-0.514879	-0.211504	0.743666	-0.778146	-0.178349	0.691830	-0.776522	-0.120795	0.721961	-0.771235	-0.146814	0.775835	-0.773031	-0.255188	0.345985	-0.779499	-0.274240	0.310277	-0.776731	-0.215957	0.287114	-0.773853	-0.203794	0.329332	-0.777423	-0.369292	0.110817	-0.733374	-0.233476	0.036244	-0.778518	-0.202139	0.039635	-0.708815	-0.179693	0.030274	-0.709627	
627	3.1350	-0.273141	1.409599	-0.590088	-0.196617	1.405276	-0.762723	-0.208417	1.375785	-0.417862	-0.147206	1.364737	-0.591565	-0.137370	0.960466	-0.492959	-0.134126	0.960181	-0.707746	-0.203257	1.007373	-0.457521	-0.182617	1.020324	-0.738393	-0.299647	1.003261	-0.548196	-0.295799	1.004100	-0.654035	-0.300385	1.011764	-0.603778	-0.237469	0.757050	-0.433378	-0.212443	0.702949	-0.431553	-0.152715	0.726035	-0.423375	-0.170350	0.785098	-0.422826	-0.231666	0.367701	-0.423055	-0.248655	0.328600	-0.430015	-0.190555	0.311270	-0.434201	-0.177866	0.349629	-0.431979	-0.353885	0.117092	-0.484338	-0.223309	0.031978	-0.437280	-0.188542	0.036289	-0.513653	-0.166369	0.026797	-0.516787	-0.211225	0.737766	-0.778392	-0.177789	0.686106	-0.776816	-0.120424	0.716533	-0.771253	-0.146730	0.770275	-0.772975	-0.254544	0.341348	-0.779991	-0.273982	0.305893	-0.777278	-0.215945	0.282142	-0.774399	-0.203356	0.324244	-0.777999	-0.371446	0.107034	-0.733728	-0.234628	0.034041	-0.779832	-0.202754	0.038464	-0.709060	-0.180060	0.029110	-0.709335	
628	3.1400	-0.273144	1.403554	-0.590344	-0.196558	1.398912	-0.763123	-0.208063	1.369705	-0.418041	-0.147169	1.358630	-0.591850	-0.137653	0.954398	-0.493088	-0.134642	0.954320	-0.707747	-0.203374	1.001383	-0.457423	-0.183050	1.014366	-0.738524	-0.299994	0.997416	-0.548066	-0.296291	0.998302	-0.653974	-0.300803	1.005943	-0.603672	-0.237705	0.750558	-0.433730	-0.212398	0.696599	-0.431911	-0.152810	0.719952	-0.423523	-0.170758	0.778940	-0.422947	-0.231116	0.362305	-0.423285	-0.248448	0.323382	-0.430385	-0.190503	0.305580	-0.434763	-0.177449	0.343804	-0.432339	-0.356339	0.112895	-0.484768	-0.224268	0.030047	-0.436280	-0.189244	0.034727	-0.514378	-0.166801	0.025374	-0.518331	-0.211027	0.731627	-0.778656	-0.177318	0.680143	-0.777147	-0.120139	0.710860	-0.771267	-0.146730	0.764466	-0.772897	-0.253970	0.336667	-0.780457	-0.273810	0.301467	-0.777796	-0.216044	0.277082	-0.774951	-0.202995	0.319063	-0.778571	-0.373730	0.103256	-0.734091	-0.235587	0.032428	-0.781137	-0.203288	0.037821	-0.709411	-0.180286	0.028457	-0.709218	
629	3.1450	-0.273183	1.397307	-0.590627	-0.196507	1.392345	-0.763570	-0.207711	1.363398	-0.418291	-0.147158	1.352346	-0.592137	-0.137947	0.948132	-0.493223	-0.135192	0.948296	-0.707750	-0.203462	0.995178	-0.457262	-0.183483	1.008161	-0.738687	-0.300407	0.991403	-0.547937	-0.296839	0.992302	-0.653927	-0.301280	0.999948	-0.603575	-0.237965	0.743845	-0.434143	-0.212372	0.690022	-0.432293	-0.152937	0.713642	-0.423572	-0.171202	0.772565	-0.423018	-0.230605	0.356760	-0.423563	-0.248298	0.318026	-0.430832	-0.190517	0.299743	-0.435449	-0.177104	0.337827	-0.432821	-0.358946	0.108766	-0.485205	-0.225048	0.028750	-0.435424	-0.189801	0.033742	-0.514857	-0.167044	0.024471	-0.519404	-0.210902	0.725262	-0.778918	-0.176921	0.673956	-0.777514	-0.119923	0.704956	-0.771343	-0.146799	0.758423	-0.772840	-0.253400	0.332003	-0.780883	-0.273661	0.297066	-0.778266	-0.216185	0.271991	-0.775458	-0.202650	0.313848	-0.779092	-0.376038	0.099575	-0.734431	-0.236472	0.031247	-0.782272	-0.203821	0.037543	-0.709756	-0.180470	0.028150	-0.709185	
630	3.1500	-0.273264	1.390900	-0.590937	-0.196468	1.385596	-0.764077	-0.207382	1.356904	-0.418508	-0.147097	1.345902	-0.592440	-0.138270	0.941702	-0.493358	-0.135785	0.942137	-0.707755	-0.203539	0.988780	-0.457028	-0.183919	1.001735	-0.738892	-0.300915	0.985250	-0.547797	-0.297469	0.986121	-0.653886	-0.301834	0.993806	-0.603484	-0.238213	0.736955	-0.434641	-0.212336	0.683241	-0.432701	-0.153077	0.707130	-0.423505	-0.171647	0.765992	-0.423028	-0.230069	0.351125	-0.423879	-0.248129	0.312578	-0.431361	-0.190509	0.293846	-0.436290	-0.176764	0.331799	-0.433462	-0.361578	0.104778	-0.485711	-0.225886	0.027876	-0.434873	-0.190327	0.033138	-0.515271	-0.167241	0.023903	-0.520160	-0.210824	0.718688	-0.779144	-0.176568	0.667562	-0.777907	-0.119742	0.698849	-0.771554	-0.146909	0.752169	-0.772869	-0.252730	0.327411	-0.781254	-0.273419	0.292736	-0.778665	-0.216256	0.266938	-0.775878	-0.202213	0.308658	-0.779517	-0.378253	0.096037	-0.734729	-0.237332	0.030373	-0.783188	-0.204349	0.037478	-0.710093	-0.180637	0.028028	-0.709256	
631	3.1550	-0.273386	1.384387	-0.591270	-0.196434	1.378684	-0.764642	-0.207087	1.350255	-0.418680	-0.146946	1.339338	-0.592766	-0.138647	0.935146	-0.493475	-0.136433	0.935879	-0.707773	-0.203636	0.982210	-0.456713	-0.184369	0.995106	-0.739142	-0.301545	0.978965	-0.547636	-0.298203	0.979788	-0.653852	-0.302486	0.987534	-0.603391	-0.238405	0.729928	-0.435209	-0.212264	0.676299	-0.433137	-0.153198	0.700443	-0.423325	-0.172051	0.759260	-0.422970	-0.229429	0.345490	-0.424246	-0.247853	0.307124	-0.431963	-0.190394	0.287993	-0.437288	-0.176363	0.325813	-0.434287	-0.364072	0.100927	-0.486329	-0.226769	0.027308	-0.434648	-0.190798	0.032748	-0.515619	-0.167397	0.023500	-0.520587	-0.210759	0.711928	-0.779302	-0.176214	0.660992	-0.778307	-0.119546	0.692590	-0.771966	-0.147022	0.745746	-0.773045	-0.251852	0.322928	-0.781564	-0.272962	0.288510	-0.778997	-0.216120	0.261979	-0.776171	-0.201571	0.303547	-0.779818	-0.380285	0.092634	-0.734914	-0.238112	0.029702	-0.783878	-0.204857	0.037444	-0.710405	-0.180804	0.027933	-0.709413	
632	3.1600	-0.273546	1.377834	-0.591623	-0.196410	1.371637	-0.765278	-0.206802	1.343477	-0.418797	-0.146691	1.332672	-0.593115	-0.139096	0.928509	-0.493555	-0.137147	0.929552	-0.707818	-0.203786	0.975497	-0.456315	-0.184852	0.988303	-0.739438	-0.302318	0.972583	-0.547440	-0.299057	0.973329	-0.653809	-0.303256	0.981153	-0.603287	-0.238506	0.722826	-0.435792	-0.212137	0.669268	-0.433595	-0.153263	0.693627	-0.423075	-0.172358	0.752404	-0.422842	-0.228607	0.339952	-0.424666	-0.247383	0.301761	-0.432618	-0.190088	0.282284	-0.438448	-0.175823	0.319993	-0.435322	-0.366334	0.097175	-0.487148	-0.227618	0.026922	-0.434745	-0.191178	0.032431	-0.515947	-0.167507	0.023172	-0.520791	-0.210659	0.705016	-0.779381	-0.175805	0.654294	-0.778699	-0.119291	0.686225	-0.772601	-0.147099	0.739205	-0.773402	-0.250678	0.318575	-0.781830	-0.272187	0.284402	-0.779268	-0.215662	0.257155	-0.776292	-0.200619	0.298572	-0.779973	-0.382072	0.089375	-0.734896	-0.238802	0.029128	-0.784359	-0.205306	0.037407	-0.710617	-0.180935	0.027865	-0.709539	
633	3.1650	-0.273736	1.371329	-0.591990	-0.196404	1.364499	-0.766002	-0.206547	1.336589	-0.418821	-0.146321	1.325948	-0.593483	-0.139634	0.921844	-0.493573	-0.137941	0.923198	-0.707903	-0.204026	0.968676	-0.455845	-0.185388	0.981353	-0.739779	-0.303246	0.966120	-0.547206	-0.300041	0.966777	-0.653749	-0.304155	0.974696	-0.603158	-0.238497	0.715757	-0.436330	-0.211947	0.662260	-0.434068	-0.153242	0.686761	-0.422815	-0.172526	0.745513	-0.422654	-0.227563	0.334598	-0.425127	-0.246672	0.296582	-0.433329	-0.189537	0.276800	-0.439762	-0.175074	0.314398	-0.436499	-0.368299	0.093530	-0.488237	-0.228442	0.026598	-0.435068	-0.191475	0.032118	-0.516375	-0.167538	0.022892	-0.520976	-0.210483	0.698011	-0.779393	-0.175296	0.647518	-0.779065	-0.118939	0.679821	-0.773444	-0.147110	0.732610	-0.773942	-0.249168	0.314348	-0.782053	-0.271050	0.280410	-0.779487	-0.214827	0.252495	-0.776204	-0.199324	0.293762	-0.779953	-0.383597	0.086288	-0.734615	-0.239408	0.028636	-0.784675	-0.205631	0.037364	-0.710736	-0.180984	0.027811	-0.709619	
634	3.1700	-0.273937	1.364963	-0.592363	-0.196435	1.357320	-0.766826	-0.206323	1.329641	-0.418713	-0.145870	1.319220	-0.593855	-0.140273	0.915217	-0.493518	-0.138814	0.916861	-0.708037	-0.204405	0.961790	-0.455318	-0.186000	0.974298	-0.740161	-0.304334	0.959597	-0.546931	-0.301157	0.960178	-0.653664	-0.305181	0.968196	-0.602993	-0.238377	0.708883	-0.436789	-0.211690	0.655422	-0.434542	-0.153127	0.679991	-0.422601	-0.172552	0.738729	-0.422421	-0.226290	0.329503	-0.425656	-0.245716	0.291672	-0.434100	-0.188743	0.271617	-0.441209	-0.174071	0.309100	-0.437759	-0.369957	0.090054	-0.489638	-0.229215	0.026348	-0.435504	-0.191616	0.031795	-0.516872	-0.167446	0.022631	-0.521205	-0.210212	0.690989	-0.779366	-0.174664	0.640746	-0.779388	-0.118483	0.673459	-0.774418	-0.147046	0.726044	-0.774636	-0.247347	0.310239	-0.782198	-0.269571	0.276520	-0.779619	-0.213636	0.248026	-0.775893	-0.197709	0.289138	-0.779741	-0.384867	0.083415	-0.734057	-0.239901	0.028259	-0.784865	-0.205816	0.037321	-0.710804	-0.180934	0.027770	-0.709697	
635	3.1750	-0.274120	1.358828	-0.592729	-0.196519	1.350166	-0.767750	-0.206111	1.322669	-0.418511	-0.145388	1.312554	-0.594214	-0.141015	0.908689	-0.493378	-0.139764	0.910596	-0.708237	-0.204964	0.954885	-0.454754	-0.186722	0.967176	-0.740574	-0.305567	0.953026	-0.546630	-0.302402	0.953575	-0.653551	-0.306332	0.961683	-0.602800	-0.238160	0.702350	-0.437142	-0.211382	0.648917	-0.435016	-0.152924	0.673489	-0.422484	-0.172448	0.732225	-0.422175	-0.224832	0.324738	-0.426278	-0.244572	0.287084	-0.434961	-0.187766	0.266777	-0.442755	-0.172865	0.304122	-0.439083	-0.371344	0.086807	-0.491324	-0.229864	0.026216	-0.435990	-0.191593	0.031481	-0.517355	-0.167222	0.022397	-0.521409	-0.209868	0.684095	-0.779331	-0.173938	0.634121	-0.779658	-0.117950	0.667274	-0.775420	-0.146931	0.719640	-0.775414	-0.245307	0.306270	-0.782243	-0.267849	0.272771	-0.779637	-0.212183	0.243759	-0.775355	-0.195868	0.284719	-0.779337	-0.385909	0.080787	-0.733200	-0.240290	0.027993	-0.784922	-0.205891	0.037268	-0.710810	-0.180815	0.027738	-0.709762	
636	3.1800	-0.274255	1.353023	-0.593077	-0.196657	1.343122	-0.768766	-0.205866	1.315719	-0.418233	-0.144898	1.306006	-0.594551	-0.141850	0.902330	-0.493151	-0.140781	0.904455	-0.708503	-0.205742	0.948038	-0.454185	-0.187582	0.960053	-0.741012	-0.306918	0.946467	-0.546327	-0.303755	0.947019	-0.653401	-0.307574	0.955211	-0.602585	-0.237885	0.696314	-0.437416	-0.211038	0.642907	-0.435491	-0.152656	0.667436	-0.422491	-0.172253	0.726169	-0.421960	-0.223264	0.320343	-0.427029	-0.243316	0.282880	-0.435938	-0.186697	0.262322	-0.444373	-0.171525	0.299524	-0.440456	-0.372538	0.083848	-0.493275	-0.230427	0.026174	-0.436528	-0.191484	0.031187	-0.517812	-0.166921	0.022176	-0.521603	-0.209494	0.677529	-0.779308	-0.173183	0.627829	-0.779878	-0.117403	0.661422	-0.776357	-0.146801	0.713569	-0.776186	-0.243165	0.302499	-0.782151	-0.266009	0.269212	-0.779490	-0.210604	0.239732	-0.774623	-0.193925	0.280548	-0.778767	-0.386749	0.078444	-0.732056	-0.240637	0.027822	-0.784835	-0.205886	0.037216	-0.710757	-0.180647	0.027713	-0.709820	
